<?xml version="1.0" standalone="no"?><!DOCTYPE svg PUBLIC "-//W3C//DTD SVG 1.1//EN" "http://www.w3.org/Graphics/SVG/1.1/DTD/svg11.dtd"><svg t="1534151957185" class="icon" style="" viewBox="0 0 1024 1024" version="1.1" xmlns="http://www.w3.org/2000/svg" p-id="1930" xmlns:xlink="http://www.w3.org/1999/xlink" width="32" height="32"><defs><style type="text/css"></style></defs><path d="M512 0a512 512 0 1 0 512 512 512 512 0 0 0-512-512zM302.72 907.52a205.44 205.44 0 0 1 0-23.04A208.64 208.64 0 0 1 512 678.4a205.44 205.44 0 0 1 166.4 80 219.52 219.52 0 0 1 44.8 128v23.68A448 448 0 0 1 512 960a442.88 442.88 0 0 1-209.28-52.48z m71.68-448A137.6 137.6 0 1 1 512 593.92a137.6 137.6 0 0 1-137.6-137.6z m410.24 410.24a277.76 277.76 0 0 0-174.08-237.44 202.24 202.24 0 1 0-197.12 0 277.12 277.12 0 0 0-174.08 234.24 448 448 0 1 1 545.28 0z" p-id="1931" fill="#999999"></path></svg>