<?xml version="1.0" standalone="no"?><!DOCTYPE svg PUBLIC "-//W3C//DTD SVG 1.1//EN" "http://www.w3.org/Graphics/SVG/1.1/DTD/svg11.dtd"><svg t="1534152340160" class="icon" style="" viewBox="0 0 1024 1024" version="1.1" xmlns="http://www.w3.org/2000/svg" p-id="4506" xmlns:xlink="http://www.w3.org/1999/xlink" width="32" height="32"><defs><style type="text/css"></style></defs><path d="M1013.76 895.488v-1.024c0-1.024 0-2.048-0.512-2.56 0-0.512 0-0.512-0.512-1.024l-1.536-3.072v-0.512l-97.792-150.016v-660.48c0-36.864-29.696-66.56-66.56-66.56h-166.912c-1.024 0-2.048-0.512-3.072-0.512-1.536 0-3.072 0-4.608 0.512h-315.392c-1.536-0.512-3.072-0.512-4.608-0.512-1.024 0-2.048 0-3.072 0.512h-166.912c-36.864 0-66.56 29.696-66.56 66.56v659.968l-102.912 150.016c-0.512 1.024-1.024 2.048-1.536 3.584 0 0.512 0 0.512-0.512 1.024-0.512 1.024-0.512 2.048-0.512 2.56V998.4c0 8.704 6.656 15.36 15.36 15.36H998.4c8.704 0 15.36-6.656 15.36-15.36v-102.912z m-323.072-854.528h156.16c19.968 0 35.84 15.872 35.84 35.84v649.216h-150.016l38.4-284.16c0.512-4.608-0.512-8.704-3.584-12.288-81.408-92.16-78.848-327.168-76.8-388.608z m-544.256 35.84c0-19.968 15.872-35.84 35.84-35.84h156.16c2.048 61.44 4.608 295.936-77.312 388.608-3.072 3.584-4.096 7.68-3.584 12.288l38.4 284.16h-150.016V76.8z m-7.168 679.936h174.592c4.608 0 8.704-2.048 11.776-5.12 3.072-3.584 4.096-7.68 3.584-12.288l-39.936-294.912c84.992-104.448 82.944-338.432 80.384-403.456h290.304c-2.56 65.536-4.608 299.008 80.384 403.456l-39.936 294.912c-0.512 4.608 0.512 8.704 3.584 12.288s7.168 5.12 11.776 5.12h174.592l80.384 123.392h-915.456l83.968-123.392zM983.04 983.04h-942.08v-72.192H983.04v72.192z" p-id="4507" fill="#999999"></path><path d="M576 465.92c0-26.112-20.992-47.104-47.104-47.104s-47.104 20.992-47.104 47.104c0 5.632 1.024 11.264 3.072 15.872l-29.696 29.696c-8.192 8.192-8.192 22.016 0 30.208l1.024 1.024c8.192 8.192 22.016 8.192 30.208 0l5.12-5.12V778.752c-15.872 3.584-26.624 11.776-26.624 20.992 0 12.8 20.992 23.552 47.104 23.552s47.104-10.752 47.104-23.552c0-8.192-8.704-15.36-21.504-19.968V512.512c22.016-4.096 38.4-23.552 38.4-46.592z" p-id="4508" fill="#999999"></path></svg>